PathFileType	4	(X/Y/Z)	/Users/itak/Documents/Research/Walk-IL/dataset/trc/00139_00007.trc
DataRate	CameraRate	NumFrames	NumMarkers	Units	OrigDataRate	OrigDataStartFrame	OrigNumFrames
100.000000	100.000000	4	53	mm	100.000000	0	547
Frame#	Time	RPSI			LPSI			L3			STRN			T10			C7			CLAV			RBAK			LBAK			LSHO			LUPA			LAEL			LAOL			LWTS			LWPS			LFRA			LIFD			LHPS			LHTS			RSHO			RUPA			RAEL			RAOL			RWTS			RWPS			RFRA			RIFD			RHTS			RHPS			RBHD			LFHD			RFHD			LBHD			LHIP			RHIP			RASI			LASI			LKNE			LTHI			LANK			LTIP			LTOE			LMT1			LMT5			LHEE			RKNE			RTHI			RANK			RTIP			RTOE			RMT1			RMT5			RHEE			
		X1	Y1	Z1	X2	Y2	Z2	X3	Y3	Z3	X4	Y4	Z4	X5	Y5	Z5	X6	Y6	Z6	X7	Y7	Z7	X8	Y8	Z8	X9	Y9	Z9	X10	Y10	Z10	X11	Y11	Z11	X12	Y12	Z12	X13	Y13	Z13	X14	Y14	Z14	X15	Y15	Z15	X16	Y16	Z16	X17	Y17	Z17	X18	Y18	Z18	X19	Y19	Z19	X20	Y20	Z20	X21	Y21	Z21	X22	Y22	Z22	X23	Y23	Z23	X24	Y24	Z24	X25	Y25	Z25	X26	Y26	Z26	X27	Y27	Z27	X28	Y28	Z28	X29	Y29	Z29	X30	Y30	Z30	X31	Y31	Z31	X32	Y32	Z32	X33	Y33	Z33	X34	Y34	Z34	X35	Y35	Z35	X36	Y36	Z36	X37	Y37	Z37	X38	Y38	Z38	X39	Y39	Z39	X40	Y40	Z40	X41	Y41	Z41	X42	Y42	Z42	X43	Y43	Z43	X44	Y44	Z44	X45	Y45	Z45	X46	Y46	Z46	X47	Y47	Z47	X48	Y48	Z48	X49	Y49	Z49	X50	Y50	Z50	X51	Y51	Z51	X52	Y52	Z52	X53	Y53	Z53	

1	0	-748.4541015625	1130.743408203125	1249.411499023438	-755.917236328125	1132.705200195312	1115.135986328125	-759.3297119140625	1162.171752929688	1180.539672851562	-550.4345092773438	1366.246337890625	1170.687866210938	-804.2753295898438	1312.010620117188	1183.819091796875	-777.0009765625	1604.808959960938	1173.578002929688	-591.7264404296875	1499.748291015625	1169.694458007812	-823.1073608398438	1419.08544921875	1260.599487304688	-788.981201171875	1586.716796875	1071.45654296875	-705.3563842773438	1573.754272460938	998.3201904296875	-725.7313842773438	1441.487426757812	928.6658935546875	-703.6621704101562	1223.01611328125	905.297119140625	-763.6641235351562	1207.488891601562	969.5455322265625	-579.6970825195312	973.439208984375	936.0381469726562	-661.4285278320312	941.58349609375	917.8516235351562	-680.3087158203125	1107.93115234375	899.3248901367188	-545.1286010742188	780.6871948242188	943.7894897460938	-627.73583984375	869.1992797851562	914.2908935546875	-560.0859375	887.0082397460938	923.764892578125	-710.2949829101562	1584.117553710938	1350.553344726562	-722.5921630859375	1509.919555664062	1414.7060546875	-723.7179565429688	1215.420654296875	1432.447387695312	-737.2982788085938	1215.30224609375	1337.565063476562	-568.7474365234375	979.111083984375	1402.34228515625	-639.357421875	958.6344604492188	1441.041381835938	-694.7982177734375	1142.182495117188	1445.733032226562	-528.7548217773438	787.0856323242188	1389.2001953125	-532.8556518554688	874.3601684570312	1406.192504882812	-595.59716796875	861.3016967773438	1440.059692382812	-668.75244140625	1764.386352539062	1274.636352539062	-652.4088134765625	1855.394409179688	1073.641967773438	-561.520751953125	1857.08447265625	1167.055786132812	-768.7254028320312	1766.806640625	1184.71484375	-667.8612060546875	1043.543212890625	1001.037048339844	-612.9192504882812	1033.461303710938	1356.724853515625	-535.115966796875	1108.024658203125	1301.70556640625	-559.3717041015625	1110.281860351562	1036.08251953125	-631.8045043945312	541.07666015625	1029.873046875	-656.728515625	686.8316040039062	1002.369323730469	-739.59814453125	39.51705169677734	1041.238525390625	-730.3555908203125	294.2653503417969	1006.867431640625	-508.3697509765625	41.73401641845703	1099.868041992188	-590.0056762695312	44.7895393371582	1134.055541992188	-614.1530151367188	40.69290542602539	1018.225402832031	-809.6663818359375	41.15758895874023	1102.167236328125	-634.9705200195312	541.6505737304688	1318.520751953125	-600.5462036132812	820.1661376953125	1346.658081054688	-744.6021728515625	33.19133377075195	1294.689331054688	-664.3756103515625	409.51953125	1328.241577148438	-513.4227294921875	49.46857070922852	1243.87890625	-572.2791748046875	40.20497894287109	1200.634033203125	-612.447265625	42.44140625	1317.654418945312	-803.1577758789062	34.33893203735352	1246.668701171875	
2	0.01	-748.3604736328125	1130.715454101562	1249.388549804688	-755.9697875976562	1132.690185546875	1115.123657226562	-759.3143310546875	1162.144287109375	1180.53125	-550.430908203125	1366.25634765625	1170.44775390625	-804.2398071289062	1311.960815429688	1183.91259765625	-777.0542602539062	1604.807739257812	1173.647705078125	-591.7738037109375	1499.743286132812	1169.518310546875	-823.0142211914062	1419.072509765625	1260.7001953125	-789.1656494140625	1586.692504882812	1071.552368164062	-705.6053466796875	1573.751220703125	998.2909545898438	-726.0624389648438	1441.475952148438	928.6495361328125	-704.0516357421875	1223.010620117188	905.2835083007812	-763.9713745117188	1207.503540039062	969.5300903320312	-580.0205078125	973.4496459960938	935.8176879882812	-661.8055419921875	941.585693359375	917.7354125976562	-680.6500244140625	1107.913818359375	899.2433471679688	-545.4556884765625	780.7000122070312	943.492919921875	-627.9984130859375	869.190185546875	914.0482177734375	-560.4451293945312	887.0009765625	923.4776000976562	-710.081787109375	1584.091186523438	1350.521484375	-722.3097534179688	1509.8994140625	1414.687377929688	-723.3461303710938	1215.390869140625	1432.406127929688	-737.0244140625	1215.234130859375	1337.470825195312	-568.3849487304688	979.115234375	1402.05224609375	-638.9157104492188	958.6353149414062	1440.816650390625	-694.39453125	1142.14306640625	1445.605834960938	-528.3474731445312	787.112548828125	1388.85986328125	-532.3954467773438	874.3794555664062	1405.87841796875	-595.181640625	861.2923583984375	1439.799682617188	-668.6124267578125	1764.332885742188	1274.567260742188	-652.6807250976562	1855.430786132812	1073.556030273438	-561.6554565429688	1857.11083984375	1166.8251953125	-768.737548828125	1766.785034179688	1184.809814453125	-667.9644165039062	1043.557250976562	1000.904663085938	-612.7245483398438	1033.446044921875	1356.54443359375	-535.0038452148438	1108.016967773438	1301.467651367188	-559.54345703125	1110.286743164062	1035.846801757812	-631.8658447265625	541.0736083984375	1029.78271484375	-656.8673095703125	686.814453125	1002.27001953125	-739.5946655273438	39.5042839050293	1041.2255859375	-730.3795776367188	294.2543334960938	1006.816223144531	-508.3765258789062	41.73904418945312	1099.86328125	-590.0077514648438	44.79300308227539	1134.054931640625	-614.1636352539062	40.69025039672852	1018.2236328125	-809.671875	41.14802169799805	1102.161499023438	-634.7395629882812	541.6444091796875	1318.37158203125	-600.2667846679688	820.1627807617188	1346.448486328125	-744.5966186523438	33.1981086730957	1294.687622070312	-664.2457275390625	409.4800109863281	1328.161987304688	-513.4096069335938	49.45940399169922	1243.862915039062	-572.27294921875	40.19117736816406	1200.619384765625	-612.4490966796875	42.44850158691406	1317.638671875	-803.1616821289062	34.34069442749023	1246.672607421875	
3	0.02	-748.2467651367188	1130.68408203125	1249.356201171875	-756.036376953125	1132.669921875	1115.106323242188	-759.2957153320312	1162.111694335938	1180.518188476562	-550.4361572265625	1366.26513671875	1170.146606445312	-804.1923217773438	1311.898681640625	1184.028076171875	-777.128173828125	1604.811401367188	1173.737548828125	-591.8283081054688	1499.73779296875	1169.296875	-822.9021606445312	1419.057983398438	1260.824462890625	-789.3905029296875	1586.66162109375	1071.665649414062	-705.9166870117188	1573.7470703125	998.25439453125	-726.4849243164062	1441.465576171875	928.6304321289062	-704.5314331054688	1223.004150390625	905.2559204101562	-764.3638305664062	1207.5234375	969.5142822265625	-580.4437255859375	973.4559936523438	935.5338745117188	-662.2767944335938	941.5865478515625	917.5765380859375	-681.095703125	1107.89599609375	899.1410522460938	-545.8740234375	780.70751953125	943.1195068359375	-628.3571166992188	869.1747436523438	913.7499389648438	-560.9053344726562	886.9857177734375	923.120849609375	-709.812255859375	1584.057495117188	1350.479125976562	-721.95166015625	1509.873168945312	1414.653198242188	-722.8692016601562	1215.34814453125	1432.3544921875	-736.6990966796875	1215.1552734375	1337.361206054688	-567.9221801757812	979.1212768554688	1401.683227539062	-638.3482666015625	958.6328125	1440.531005859375	-693.8831787109375	1142.096313476562	1445.441284179688	-527.8292846679688	787.1463012695312	1388.415893554688	-531.8236694335938	874.4046020507812	1405.46142578125	-594.64794921875	861.2816772460938	1439.457397460938	-668.4434204101562	1764.265991210938	1274.478393554688	-653.0051879882812	1855.478271484375	1073.450805664062	-561.8128051757812	1857.14404296875	1166.54736328125	-768.7520751953125	1766.756713867188	1184.923950195312	-668.1175537109375	1043.572631835938	1000.739501953125	-612.4707641601562	1033.430297851562	1356.320556640625	-534.856201171875	1108.00244140625	1301.165649414062	-559.7572631835938	1110.294189453125	1035.548583984375	-631.93701171875	541.068603515625	1029.676025390625	-657.0355834960938	686.794921875	1002.147521972656	-739.5916137695312	39.48672103881836	1041.210815429688	-730.4071044921875	294.2392883300781	1006.7529296875	-508.3865051269531	41.74443054199219	1099.858276367188	-590.0111083984375	44.79716491699219	1134.054443359375	-614.174560546875	40.68711471557617	1018.221740722656	-809.67919921875	41.1368293762207	1102.153076171875	-634.4547729492188	541.6275634765625	1318.181274414062	-599.908447265625	820.1589965820312	1346.179077148438	-744.5883178710938	33.20635986328125	1294.685913085938	-664.0787963867188	409.4303283691406	1328.062866210938	-513.3959350585938	49.44783020019531	1243.841552734375	-572.2657470703125	40.17168807983398	1200.601684570312	-612.45263671875	42.45681762695312	1317.6201171875	-803.1661987304688	34.34263229370117	1246.675415039062	
4	0.03	-748.11865234375	1130.651733398438	1249.313598632812	-756.1145629882812	1132.644287109375	1115.082153320312	-759.2759399414062	1162.076782226562	1180.499389648438	-550.4547729492188	1366.271118164062	1169.797973632812	-804.1350708007812	1311.828002929688	1184.158935546875	-777.221435546875	1604.821533203125	1173.844116210938	-591.8856811523438	1499.733154296875	1169.039306640625	-822.7769165039062	1419.042724609375	1260.96533203125	-789.6422119140625	1586.625366210938	1071.787475585938	-706.2772216796875	1573.742309570312	998.2117919921875	-726.982666015625	1441.45849609375	928.6094360351562	-705.0806274414062	1222.997192382812	905.2103881835938	-764.825439453125	1207.547729492188	969.5017700195312	-580.9564208984375	973.4542236328125	935.1965942382812	-662.8240966796875	941.58642578125	917.377197265625	-681.6368408203125	1107.879150390625	899.0205078125	-546.3721313476562	780.7042236328125	942.684814453125	-628.8112182617188	869.1516723632812	913.4121704101562	-561.4529418945312	886.9591064453125	922.7096557617188	-709.4979858398438	1584.01806640625	1350.426879882812	-721.5310668945312	1509.841430664062	1414.600463867188	-722.3065795898438	1215.292846679688	1432.295043945312	-736.3430786132812	1215.072998046875	1337.246459960938	-567.3731689453125	979.1295166015625	1401.247924804688	-637.6748657226562	958.6259765625	1440.195434570312	-693.283203125	1142.045654296875	1445.244995117188	-527.2182006835938	787.186767578125	1387.881469726562	-531.1697998046875	874.4354858398438	1404.953247070312	-594.0134887695312	861.2725830078125	1439.04052734375	-668.2560424804688	1764.1884765625	1274.372680664062	-653.3616333007812	1855.536010742188	1073.331909179688	-561.9810180664062	1857.183227539062	1166.239013671875	-768.7681274414062	1766.722045898438	1185.051025390625	-668.3253784179688	1043.587158203125	1000.54833984375	-612.1654052734375	1033.41552734375	1356.062622070312	-534.6719360351562	1107.982299804688	1300.808227539062	-560.0029296875	1110.304931640625	1035.19970703125	-632.0127563476562	541.0614624023438	1029.558959960938	-657.222900390625	686.775146484375	1002.007263183594	-739.5895385742188	39.46509552001953	1041.195068359375	-730.4351806640625	294.2204895019531	1006.680480957031	-508.3993225097656	41.7496337890625	1099.853393554688	-590.0151977539062	44.80208587646484	1134.05419921875	-614.184814453125	40.68365478515625	1018.219909667969	-809.6882934570312	41.12443542480469	1102.141357421875	-634.132080078125	541.5974731445312	1317.9580078125	-599.4862670898438	820.1558227539062	1345.858642578125	-744.576904296875	33.21523666381836	1294.684204101562	-663.8793334960938	409.3734130859375	1327.948852539062	-513.3831787109375	49.43438720703125	1243.815795898438	-572.2586669921875	40.14683532714844	1200.58154296875	-612.457275390625	42.46568298339844	1317.599487304688	-803.1705322265625	34.34459686279297	1246.677001953125	
